<svg width="108" height="32" viewBox="0 0 108 32" fill="none" xmlns="http://www.w3.org/2000/svg">
<path d="M13.2 2.68H18.36L30.68 31H23.64L21.2 25H10.2L7.84 31H0.96L13.2 2.68ZM15.6 10.92L12.16 19.72H19.08L15.6 10.92ZM32.8484 0.759998H38.8484V31H32.8484V0.759998ZM43.2391 11.56H49.2391V31H43.2391V11.56ZM42.7591 5.44C42.7591 4.48 43.0924 3.66667 43.7591 3C44.4524 2.30667 45.2791 1.96 46.2391 1.96C47.1991 1.96 48.0124 2.30667 48.6791 3C49.3724 3.66667 49.7191 4.48 49.7191 5.44C49.7191 6.4 49.3724 7.22667 48.6791 7.92C48.0124 8.58667 47.1991 8.92 46.2391 8.92C45.2791 8.92 44.4524 8.58667 43.7591 7.92C43.0924 7.22667 42.7591 6.4 42.7591 5.44ZM51.5097 11.56H57.9897L62.9097 24.76H62.9897L67.5497 11.56H73.5897L65.9097 31H59.5497L51.5097 11.56ZM75.8563 11.56H81.8563V31H75.8563V11.56ZM75.3763 5.44C75.3763 4.48 75.7096 3.66667 76.3763 3C77.0696 2.30667 77.8963 1.96 78.8563 1.96C79.8163 1.96 80.6296 2.30667 81.2963 3C81.9896 3.66667 82.3363 4.48 82.3363 5.44C82.3363 6.4 81.9896 7.22667 81.2963 7.92C80.6296 8.58667 79.8163 8.92 78.8563 8.92C77.8963 8.92 77.0696 8.58667 76.3763 7.92C75.7096 7.22667 75.3763 6.4 75.3763 5.44ZM85.4469 21.28C85.4469 19.7333 85.7269 18.3333 86.2869 17.08C86.8469 15.8267 87.6069 14.76 88.5669 13.88C89.5535 12.9733 90.7002 12.28 92.0069 11.8C93.3402 11.32 94.7535 11.08 96.2469 11.08C97.7402 11.08 99.1402 11.32 100.447 11.8C101.78 12.28 102.927 12.9733 103.887 13.88C104.874 14.76 105.647 15.8267 106.207 17.08C106.767 18.3333 107.047 19.7333 107.047 21.28C107.047 22.8267 106.767 24.2267 106.207 25.48C105.647 26.7333 104.874 27.8133 103.887 28.72C102.927 29.6 101.78 30.28 100.447 30.76C99.1402 31.24 97.7402 31.48 96.2469 31.48C94.7535 31.48 93.3402 31.24 92.0069 30.76C90.7002 30.28 89.5535 29.6 88.5669 28.72C87.6069 27.8133 86.8469 26.7333 86.2869 25.48C85.7269 24.2267 85.4469 22.8267 85.4469 21.28ZM91.4469 21.28C91.4469 22.7467 91.8602 23.9333 92.6869 24.84C93.5402 25.7467 94.7269 26.2 96.2469 26.2C97.7669 26.2 98.9402 25.7467 99.7669 24.84C100.62 23.9333 101.047 22.7467 101.047 21.28C101.047 19.8133 100.62 18.6267 99.7669 17.72C98.9402 16.8133 97.7669 16.36 96.2469 16.36C94.7269 16.36 93.5402 16.8133 92.6869 17.72C91.8602 18.6267 91.4469 19.8133 91.4469 21.28Z" fill="white"/>
</svg>
